                                 $$TheAaax9$$
                                --------------

++++++++++++++++++++++++++++++++++++++++++++++++++++++++++++++++++++++++++

Present by TheAaax9
--------------------

ScreenShot All in one :-
 
http://shareimage.org/images/go4hd27sh7fbngqh2ry.jpg

========================================================================== 

General
Complete name                    : Dhobi Ghaat (2011) New Scam_TheAaax9.mpg
Format                           : MPEG-PS
File size                        : 552 MiB
Duration                         : 1h 32mn
Overall bit rate                 : 830 Kbps

Video
ID                               : 224 (0xE0)
Format                           : MPEG Video
Format version                   : Version 2
Format settings, Matrix          : Default
Duration                         : 1h 32mn
Bit rate mode                    : Constant
Bit rate                         : 733 Kbps
Nominal bit rate                 : 1 150 Kbps
Width                            : 352 pixels
Height                           : 288 pixels
Display aspect ratio             : 1.222
Frame rate                       : 25.000 fps
Scan type                        : Progressive
Bits/(Pixel*Frame)               : 0.289
Stream size                      : 487 MiB (88%)

Audio
ID                               : 192 (0xC0)
Format                           : MPEG Audio
Format version                   : Version 1
Format profile                   : Layer 2
Duration                         : 1h 32mn
Bit rate mode                    : Constant
Bit rate                         : 64.0 Kbps
Channel(s)                       : 2 channels
Sampling rate                    : 48.0 KHz
Resolution                       : 16 bits
Stream size                      : 42.6 MiB (8%)

==========================================================================

Present by TheAaax9
--------------------

ScreenShot All in one :-
 
http://shareimage.org/images/go4hd27sh7fbngqh2ry.jpg

++++++++++++++++++++++++++++++++++++++++++++++++++++++++++++++++++++++++++

                                 $$TheAaax9$$
                                --------------